<?xml version="1.0" encoding="UTF-8"?>
<svg width="150px" height="30px" viewBox="0 0 150 30" version="1.1" xmlns="http://www.w3.org/2000/svg" xmlns:xlink="http://www.w3.org/1999/xlink">
    <title>Logo_iTechArt</title>
    <g id="Identity-server" stroke="none" stroke-width="1" fill="none" fill-rule="evenodd">
        <g id="first-login_2" transform="translate(-80.000000, -59.000000)">
            <g id="download-(5)" transform="translate(80.000000, 59.473684)">
                <path d="M76.5469359,21.3360517 C76.0771574,23.4232014 74.8776001,25.2686559 73.1689481,26.532884 C71.3380233,27.8308258 69.1366969,28.4862908 66.9021164,28.3988924 C64.1954026,28.5440149 61.5691394,27.4429639 59.7584877,25.4039506 C58.0418018,23.4508622 57.1834588,20.6518506 57.1834588,17.0069153 C57.1834588,13.5361406 58.0141158,10.8210987 59.6754248,8.88045057 C61.4848019,6.83309278 64.1164359,5.72777994 66.8282827,5.87617794 C70.0462996,5.87617794 72.5382662,6.84961238 74.3041762,8.79648057 C75.2774558,10.0231239 75.9821145,11.4446177 76.3715809,12.9670079 L70.7508159,12.9670079 C70.5373566,12.5167882 70.2537872,12.1041277 69.9109313,11.7447736 C69.1261022,10.9544414 68.044888,10.5403242 66.9390376,10.6065082 C65.8722058,10.5786732 64.8398157,10.9893953 64.0778944,11.7447736 C63.118027,12.8270581 62.635013,14.6153155 62.6288601,17.1095459 C62.6288601,19.6006666 63.1087975,21.3640427 64.0778944,22.3903471 C64.8630423,23.2996182 66.0250607,23.7833105 67.2159184,23.6965525 C68.0275418,23.7200185 68.8305957,23.5235113 69.5417541,23.1274198 C69.7072873,23.0623506 69.8580098,22.9639483 69.9847694,22.8381886 L70.4277847,22.3810174 C70.6161403,22.1403933 70.8331308,21.9241703 71.073847,21.7372444 C71.4953412,21.4350833 72.007438,21.2900025 72.5228814,21.326722 L72.5228814,21.3360517 L76.5469359,21.3360517 Z M31.5808453,5.00848426 L39.7766359,5.00848426 L39.7766359,2.96520589 C39.7938609,2.18674178 39.4895244,1.43620781 38.9367514,0.893936873 C38.3981312,0.337342343 37.657996,0.027279447 36.8878007,0.0354110349 L17.7550627,0.0354110349 L17.7550627,5.00848426 L25.8770174,5.00848426 L25.8770174,28.0070316 L31.5808453,28.0070316 L31.5808453,5.00848426 Z M88.7944763,10.8117694 C87.4454816,10.7372373 86.1481492,11.3457577 85.3334168,12.4351964 C84.4582828,13.7513809 84.0336218,15.3210707 84.1243551,16.9042847 L84.1243551,28.0070316 L78.6604954,28.0070316 L78.6604954,0.016913163 L81.4293377,0.016913163 C82.9585304,0.016913163 84.1981888,1.27007351 84.1981888,2.81592512 L84.1981888,9.22566253 C85.0658015,7.68165389 86.5249716,6.5677585 88.2314768,6.1467491 C89.9084472,5.7048191 91.6815137,5.81929585 93.2892424,6.47330045 C94.805856,7.13417576 96.114528,8.20220037 97.073333,9.56154363 C98.1811798,11.3026655 98.7143495,13.3540597 98.5961968,15.4208084 L98.5961968,28.0163614 L93.2061795,28.0163614 L93.2061795,16.8203147 C93.2063183,16.0559672 93.1321236,15.2934571 92.9846697,14.543785 C92.8197434,13.7941685 92.5057318,13.0862893 92.0617223,12.4631857 L92.0617223,12.4818463 C91.322226,11.4022898 90.0929026,10.7739138 88.7944763,10.8117694 Z M54.9683824,21.3453837 C54.4986038,23.4325333 53.2990378,25.2779857 51.5903858,26.5422138 C49.759461,27.8401555 47.558139,28.4956205 45.3235585,28.4082221 C42.612178,28.5538752 39.9816728,27.4490375 38.1707006,25.4039506 C36.4540147,23.4508622 35.595675,20.6518506 35.595675,17.0069153 C35.595675,13.5361406 36.4263287,10.8210987 38.0876376,8.88045057 C39.9075166,6.83323331 42.5500868,5.73447392 45.2681832,5.894838 C48.4800471,5.894838 50.9720095,6.86827244 52.7440723,8.81514063 C54.5161351,10.7620088 55.3744781,13.5610209 55.3191012,17.2121765 L55.3191012,18.1451796 C55.3315257,18.3386934 55.3032171,18.5326701 55.2360383,18.7143112 L41.2994996,18.7143112 C41.2434993,20.0650923 41.6729678,21.3907261 42.5085657,22.4463278 C43.2928459,23.3568221 44.4555006,23.8407775 45.646594,23.7525332 C46.458407,23.7778365 47.2619297,23.5812136 47.9724254,23.1834005 C48.1417347,23.120454 48.2958846,23.0218677 48.4246699,22.8941693 L48.8676852,22.4369981 C49.0138687,22.1739776 49.2233954,21.9525393 49.4768307,21.7932251 C49.9143472,21.4956601 50.4363683,21.3514418 50.9627819,21.3827027 L50.9535527,21.3453837 L54.9683824,21.3453837 Z M49.4953022,14.9916264 C49.4976439,13.8158051 49.1110495,12.6729434 48.3969823,11.7447736 C47.6099663,10.9519356 46.5248482,10.5376115 45.415855,10.6065082 C44.3424936,10.5724687 43.302069,10.9837342 42.5362534,11.7447736 C41.7252466,12.6253436 41.2821455,13.7886149 41.2994996,14.9916264 L49.4953022,14.9916264 Z" id="Shape" fill="#231F20"></path>
                <path d="M126.902833,17.5108472 C126.848987,15.693098 127.163066,13.8833906 127.825789,12.1927249 C128.375992,10.8498117 129.244447,9.66429337 130.354664,8.74061084 C131.411504,7.90482623 132.627406,7.29819499 133.926484,6.95857309 C135.303054,6.57389397 136.725414,6.38238957 138.153595,6.38925284 L138.956563,6.38925284 L138.956563,12.1554047 L137.110659,12.1554047 C135.853028,12.0535145 134.607184,12.4632445 133.649598,13.293669 C132.817455,14.285108 132.412027,15.5717517 132.523599,16.8670743 L132.523599,28.0071422 L126.902833,28.0071422 L126.902833,17.5108472 Z M14.7459903,0.0450138714 L14.7459903,4.99926505 L8.9221777,4.99926505 L8.9221777,2.20025302 C8.9221777,0.750986908 9.6728434,0.0263537739 11.1741749,0.0263537739 L11.1741749,0.0450138714 L14.7459903,0.0450138714 Z M5.93182091,22.1665371 L5.93182091,27.9978124 L0.015713185,27.9978124 L0.015713185,22.1665371 L5.93182091,22.1665371 Z M5.9595091,7.37842474 L5.9595091,13.3589795 L0.015713185,13.3589795 L0.015713185,9.62696401 C-0.0619828165,9.00476365 0.151286927,8.38146194 0.592666754,7.94075981 C1.03404658,7.50005769 1.65322332,7.29219133 2.26771041,7.37842474 L5.9595091,7.37842474 Z M14.7552195,7.37842474 L14.7552195,27.9978124 L8.9221777,27.9978124 L8.9221777,7.37842474 L14.7552195,7.37842474 Z M143.460551,27.9045105 C141.399296,27.7490098 140.368668,26.4210345 140.368668,23.9205839 L140.368668,0.0450138714 L143.257499,0.0450138714 C143.956716,0.049021612 144.6238,0.342362399 145.103403,0.856727322 C145.624979,1.36740943 145.915421,2.07273529 145.906371,2.80670541 L145.906371,6.47341096 L149.201306,6.47341096 L149.201306,9.36572316 C149.22649,10.1136446 148.934299,10.8367971 148.398338,11.3530216 C147.882271,11.8593621 147.188469,12.1378917 146.469371,12.1274144 L145.906371,12.1274144 L145.906371,21.8026656 C145.906371,22.7356695 146.441685,23.192841 147.521536,23.192841 C148.878273,23.192841 149.210526,23.7059922 149.210526,24.8815773 L149.210526,28.0071422 L149.210526,27.9978124 C147.29405,28.1017104 145.372741,28.0705334 143.460551,27.9045105 Z M116.168932,0.00769371354 L126.210624,27.9978124 L120.192992,27.9978124 L118.347088,22.2318476 L107.576271,22.2318476 L105.80421,27.9978124 L99.777349,27.9978124 L108.942239,1.87370167 C109.332536,0.683313914 110.473989,-0.0859492006 111.711082,0.00769371354 L111.664936,0.00769371354 L116.168932,0.00769371354 Z M109.099136,17.4735271 L116.814995,17.4735271 L112.95707,5.64303742 L112.95707,5.6057173 L109.099136,17.4735271 Z" id="Shape" fill="#EC1C24"></path>
            </g>
        </g>
    </g>
</svg>